<svg xmlns="http://www.w3.org/2000/svg" viewBox="0 0 357.03 357.03"><defs><style>.cls-2{fill:#0697e7}.cls-3{fill:#29235c}</style></defs><g id="Слой_2" data-name="Слой 2"><path fill="none" d="M0 0h357.03v357.03H0z" id="Слой_2-2" data-name="Слой 2"/><g id="Слой_3" data-name="Слой 3"><path class="cls-2" d="M131.83 179.4c26-13.86 53.58-10.16 66 5.3 14.22 17.71 3.14 44.12 1.95 46.85-15.53 35.57-70 55.54-97.6 39-11.89-7.12-10.45-16-19.52-148.35-1.29-18.86-2.14-30.72 5.86-39 22.78-23.65 102.42-3.2 107.36 31.23 3.12 21.72-23.31 49.89-64.05 64.97z"/><circle class="cls-3" cx="139.63" cy="103.43" r="13.87"/><circle class="cls-3" cx="146.11" cy="194.4" r="13.87"/><path class="cls-2" d="M311.81 184c3.37 9.17-3.53 19.45-4.88 21.47-16.33 24.33-56.82 22.21-56.6 26.35.25 4.71 52.44.35 56.6 14.64 1.85 6.33-6.37 14.12-11.71 17.57-17.17 11.08-46.22 4.13-59.53-13.67-18.2-24.34-4.64-65.88 21.47-78.07 19.71-9.29 49.27-2.99 54.65 11.71z"/><path d="M246.75 138.41c-3.94 3.85-2.74 10.78-1 14.64 3.37 7.36 11.64 9.73 16.27 11.06a35.83 35.83 0 0012.36 1.3 67.41 67.41 0 009.2-11.51c4.64-7.3 9.84-15.49 6.74-20-2.69-4-11.31-4.64-15.59-1.13s-3 9.65-5.88 10.24c-2.24.46-3.26-3.31-7.81-5.53-3.98-2-10.59-2.68-14.29.93z" fill="#e73e8e"/><circle class="cls-3" cx="281.74" cy="198.47" r="15.52"/></g></g></svg>