<svg xmlns="http://www.w3.org/2000/svg" viewBox="0 0 279.7 210.01"><defs><style>.cls-2{fill:#e73e8e}</style></defs><g id="Слой_2" data-name="Слой 2"><g id="Слой_3" data-name="Слой 3"><path d="M159.11 57.09c4.53 3.11 11.44-4.69 26-9.11 4.48-1.36 22.25-6.74 33.83 0 14.65 8.53 14.36 33.52 14.31 37.74-.69 59.31-108.23 135.37-153.55 108C45 172.77 55.58 96.49 57.61 81.81 60.17 63.33 63.44 42 81 25.86 96.16 12 123.17.91 139.59 11.54c7.79 5.05 14.9 16.09 16.92 27.33 1.74 9.7-.99 15.75 2.6 18.22z" fill="#29235c"/><path class="cls-2" d="M215.07 208c-13.07 9.9-50.07-20-57.26-26l12.28-7.64c12.91 13.64 28.07 27.89 33.26 24.57 7.13-4.56-7-40.48-18.86-63.76C166.08 99.09 134 72.94 70 20.65c-5-4-14.42-11.56-24.07-9.11-7.7 2-13.81 9.84-15 17.57-1.43 9.56 4.94 17.34 13.66 28a99.49 99.49 0 0015.08 14.81c-.68 3.3-1.37 6.59-2.06 9.89C26.37 63.28 9.72 39.46 14.67 22 18.38 8.83 33.2 2.82 34.19 2.44c40.66-15.85 99.14 49 141.19 95.64 8.71 9.67 36.11 40.78 42.94 83.93 2.94 18.56-.38 23.86-3.25 25.99z"/><path class="cls-2" d="M279.58 117.4c-1.54-9.75-17.84-15.09-23.42-16.92a60.14 60.14 0 00-24.42-2.62c-5.07 7.33-5 10.49-4 12 2.18 3.23 9.19-.12 20.3 2.24 2 .41 13.06 2.79 13.83 6.57 1.72 8.42-33.85 21.3-58.82 27.58-38.69 9.72-79.79 2.54-162-11.82-6.36-1.11-18.36-3.37-23.35-12.32-4-7.15-2.62-17 2.11-22.94 5.84-7.37 17.09-7.6 29.57-8 2.93-.1 5.36 0 7 .06l1.2-9.44C32.36 75.36 11.03 79.15 3.3 91.5c-6.81 10.9-1.21 25.53-.32 27.69 17.1 41.35 104.4 43.19 167.16 44.52 14.39.3 55.72.2 90.09-22.53 6.77-4.46 20.89-13.99 19.35-23.78z"/></g></g></svg>