<svg xmlns="http://www.w3.org/2000/svg" viewBox="0 0 238.06 221.05"><g data-name="Слой 2"><g data-name="Слой 3"><path d="M230.57 128.15c5 22.81 12.17 39.34 3.26 56-3.43 6.39-9.37 13-24.73 20.82-23.77 12.07-52.44 18-91.74 15.61-48.08-2.87-78.26-4.68-95-26.67-9.73-12.79-5.55-20.1-11.06-72.22C4.1 53.44-5.16 46 3.5 30.56 22.42-3.17 85.16-.66 117.36.63c37 1.48 86.69 3.47 106.05 35.13 14.41 23.56-5.47 34.92 7.16 92.39z" fill="#0697e7"/><path d="M194.14 115.35c1.81 48.31.3 56.55-6.51 62.79-5.95 5.46-22.48 7.18-55.3 10.41-16.44 1.61-24.81 2.41-32.53 1.95-17.14-1-39.78-2.38-51.4-16.27-8.12-9.69-4.39-17.79-3.91-58.88.6-50.31-4.76-56.68 3.26-66.69 3.33-4.15 9.7-9.85 70.27-15.61 53.85-5.12 60-1.68 63.76 1.3 5.73 4.59 9.76 11.41 12.36 81z" fill="#dbdb00"/><path d="M143.23 56.47c8.47-1.23 17.56 2.58 22.12 8.46 15.27 19.68-5.52 81.59-40.34 85.23-30.16 3.16-62.86-38.25-56.6-66.36 1.93-8.7 8.9-22 21.47-24.08 11.14-1.86 23.66 5.57 30.58 18.87 3.99-12.03 12.64-20.59 22.77-22.12z" fill="#e73e8e"/></g></g></svg>