<svg xmlns="http://www.w3.org/2000/svg" viewBox="0 0 249.56 202.79"><g data-name="Слой 2"><g data-name="Слой 3"><path d="M128.59 146.11a73.76 73.76 0 00-17.75-33 72.33 72.33 0 00-29.65-18.83c4.34-.58 15.62-2.73 23.25-12.18 10.88-13.45 6.07-31.38 4.35-37.56a51.82 51.82 0 00-19.6-28.39C72.87 4.3 49.53 1.66 31 9.5 7.5 19.41 6.27 44.07 4.09 66.1 2.44 82.75.41 96.65.07 124.32-.18 143.7.3 159.77.79 171a80.24 80.24 0 004 16.83c4.13 11.1 16.68 19.95 27.86 11.88 9.46-6.84 9.27-21.06 11-31.61q3.24-19.28 6.47-38.55 9 20.75 17.94 41.51c6 14 13.2 21.16 23.8 25.21 8.2 3.14 21.45 4.48 30.53-2.7 14.83-11.77 8.44-38.19 6.2-47.46zm120.74-3.27c-2-19.72-14-32.92-29.71-42C237.69 80.7 248.46 53.72 245.85 27c-1.13-11.56-7-21.35-19-24.89-3.22-1-13-3.94-28.74-.34-7.83 1.74-29.8 6.74-44.11 24.03-9.58 11.56-5.3 16-13 89.1-.91 8.59-.4 22.26 0 40.48.25 11.35 2.08 22.85 9.46 32 15.34 19 46.41 18.48 67 9.14s34.06-31.44 31.87-53.68z" fill="#e73e8e"/><path d="M71.93 47.42a4.37 4.37 0 00-.62-2.05 7.52 7.52 0 00-.67-2 17.09 17.09 0 00-2.23-3.53 22.09 22.09 0 00-3.29-3.12 11.71 11.71 0 00-5.64-2.39 11.93 11.93 0 00-6.25-.33 11.8 11.8 0 00-5.57 2.32 11.81 11.81 0 00-4.42 4l-1.91 3.59a15.75 15.75 0 00-.76 8.3l1.23 3.87a15.82 15.82 0 004.51 5.64l1.23 1.13 3.56 1.91 4.08.93 4.17-.18a11.68 11.68 0 005.53-2.3 7.7 7.7 0 003-2.53 7.8 7.8 0 002.31-3.24 7.84 7.84 0 001.42-3.82 11.78 11.78 0 00.32-6.2zm144.37-7.33c0-.07-.06-.14-.08-.21-.53-1.22-1.06-2.44-1.58-3.66l-.09-.16L212.1 33a11.86 11.86 0 00-5-3.16 7.76 7.76 0 00-3.12-1 13.68 13.68 0 00-3.37-.32 12.18 12.18 0 00-2.61.27c-.52.08-1.06.17-1.62.28a15.22 15.22 0 00-6.7 3.81 14.7 14.7 0 00-3.9 6.53 14.52 14.52 0 00-.45 5.31 11.55 11.55 0 00.51 4.68 11.49 11.49 0 002.82 5.22 11.91 11.91 0 004.42 4l3.76 1.55a16.31 16.31 0 008.38 0l3.76-1.55a15.63 15.63 0 005.6-5.62 16.74 16.74 0 002.33-8.5 16 16 0 00-.61-4.41zm1 103.28a11.52 11.52 0 00-3.25-5l-3.19-2.4a16 16 0 00-8-2.1l-4.19.55a15.88 15.88 0 00-6.95 3.95l-.84 1c-1.78 2.1-3.45 4.13-4.1 6.9-.18 1.34-.37 2.69-.56 4 .17 1.38.36 2.76.58 4.14a15 15 0 004 6.62 15.47 15.47 0 006.79 3.86c.73.11 1.45.21 2.18.29A12.1 12.1 0 00206 165c3.19-.86 4.59-2 7.08-4l1-.81a11.46 11.46 0 003.25-4.95 13.56 13.56 0 000-11.84z" fill="#dbdb00"/></g></g></svg>