<svg xmlns="http://www.w3.org/2000/svg" viewBox="0 0 382.51 443.63"><defs><style>.cls-1{fill:#e73e8e}</style></defs><g id="Слой_2" data-name="Слой 2"><g id="Слой_2-2" data-name="Слой 2"><ellipse class="cls-1" cx="191.25" cy="259.75" rx="191.25" ry="183.88"/><ellipse cx="186.88" cy="240.85" rx="162.85" ry="156.57" fill="#0697e7"/><path class="cls-1" d="M259.14 164.33c-35.29-53.83-70.92 4.47-100.76 29.06-14.74 10.17-34.36 18.78-45.22 33.74-4.49-2.79-4.34 3.45-3.87 6.42-2.28 4.36-5.68 12.87 1.13 14.57 1.85 27.94 14.43 53.3 32.15 74.55 8.51 22.09 19.06 28.48 26 30.63 32.63 10.17 85.75-42.77 99.31-99.36 9.5-39.8-2.26-74.14-8.74-89.61z"/><path d="M241.42 228.83c1-5.13-6.7-14.13-15.84-14.69-8.61-.52-15.5 6.64-16.32 10.25a3.57 3.57 0 005.17 4c2.23-1.08 4.27-2.59 6.53-3.45v1a9.29 9.29 0 00.66 3.61 6.41 6.41 0 002.41 3.05 6.07 6.07 0 007-.81 6.52 6.52 0 001.9-5.37 11.93 11.93 0 002.3 3.83c1 1.13 2.13 2.38 3.36 2.25 1.41-.17 2.55-2.28 2.83-3.67zm1.86-24.38c-7.92-7.35-24.94-17-32.68-3.95-1.29 2.18 1.19 4.12 3.21 3.21 9.1-4.11 16.06 2 22.84 7.37 4.6 3.66 11.15-2.43 6.63-6.63zM173.17 231c-5.45-17.26-29.28-19.17-36-1.87-1 2.57 3 4.12 4.37 1.84a14 14 0 018-6.41 4.27 4.27 0 00-.28.68c-.73 2.15-.66 5.94 2.13 8 2.4 1.79 6 1.67 7.77 0 1.2-1.14 1.66-3.09 2-4.35a12.9 12.9 0 00.32-2 13.06 13.06 0 013.88 6.26c1.41 5.07 9.39 2.85 7.81-2.15zM208 291.43c-7.32 4.32-13.57 6.71-23.12 9.8-4.66 1.51-11.83 2.21-22.25-2.17-1.8-.44-4-.7-4.94.42-1.87 2.21 2 8.79 5.21 12.56 1.13 1.35 12.36 14.2 26.51 10.93 7-1.61 10.88-6.39 15.83-12 4.23-4.83 7.44-10.33 7.28-16.91a3 3 0 00-4.52-2.63z" fill="#2b175c"/><path d="M320.71 236.9c7.64 5.74 16.16 7.84 20.92 4.57 6.72-4.6 4.16-18.6-.35-27.06-6.06-11.36-15.42-12.7-27.34-20.48-20.59-13.43-15-24.15-48.36-63.91-9.18-10.94-17.15-18.16-28.32-25-9.46-5.73-20.58-8.82-31.64-7.16-8.5 1.28-18.16 6.18-21.51 14.5a104.84 104.84 0 00-22.72-7c-4-.75-16-2.59-27.28 0-25.9 5.92-43.85 34.67-50.83 53.79-3.19 8.76-4.61 15.55-11 25.58-5 7.91-11.72 13.78-19 19.59-11.5 9.21-21.06 23.12-14.28 38.29 4 9 13.93 14.42 23.47 13.62A98.74 98.74 0 0052.44 271c-3.61 6.53-7.78 16.86-3.24 22.25 4.8 5.75 16.56 2.45 17.47 2.19a33.34 33.34 0 00-3.58 8.26c-.6 2.11-5.46 20.43 5.86 29.69 4.93 4 14.21 7.39 22.33 2.66 6.52-3.79 10.16-11.55 9.14-19.63a41.9 41.9 0 001.91 6c1.2 3 7.85 19.55 21.16 21.51 1.4.2 6.62.87 11.14-2.09 5.25-3.45 7.71-10.32 6.54-17.79-1.2-7.71-4.1-15.17-6-22.73-2.2-8.91-4-17.92-5.38-27-1.37-8.69-2.6-17.47-3.24-26.24-.63-8.5-.32-17.57 4.18-25.08 5.8-9.68 17.36-11.13 26.48-16.27-.2 1.77-.29 3.52-.32 5.16-.1 5.12-.46 11.23 5.61 12.26 4.92.84 9.63-2.34 12.71-5.88a28.29 28.29 0 003-4.53 168 168 0 00-3.8 18c-.37 2.44 1.87 4.51 4.24 3.25 12.73-6.79 22.25-40.55 22.25-40.55 7.31-26.21 9.05-39 12.52-39 3.15 0 3.09 10.46 11.75 22.47 6.48 9 10.92 9.24 18.24 16.34 13.62 13.22 20.54 33.69 19.24 50.36-.87 11.1-5.11 21.55-8.76 32a143 143 0 00-7.57 30.4c-1.78 14.95-.61 42.15 17 48.09 8.77 2.94 17.66-2.26 21.8-10 3.63-6.78 4.38-14.89 3.71-22.72 8.87 7.53 21.55 10.27 29.24-1.35 6.71-10.14 5.86-23.72 1.39-35.28 1.55.86 7.78 4.06 12.74 1.48 6.5-3.37 6-14.12 5.79-18.39-.69-16.16-12.2-27.52-17.28-31.94z" fill="#dbdb00"/><path d="M287.51 310.66c13.24-13.78 16.13-27.79 16-34.89a17.22 17.22 0 00-.44-3.79c-.73-3.06-2.71-7.35-12.34-14.64-8-6-10.69-6.18-13-10.44a17.9 17.9 0 01-2-9.53c1.23-2.55 3.05-6.39 5.17-11.11 1.63-3.6 4.2-9.4 5.06-11.6 3.11-7.87 5.77-23.58-2-38-5-9.29-12.36-14.16-16.34-16.7-20.06-12.82-49.57-14-54.17-4.55-2.9 6 3.77 16.95 11.75 22.47 12.46 8.62 24 1.08 33.19 10.21 6.53 6.48 6.83 16.34 6.91 19 .28 9.52-3.47 11.94-6.05 24.93-1.28 6.46-2.09 13.53.51 19.78 5.26 12.61 22.19 9 27.12 20.12 3.48 7.85-1.25 17.08-4 22.41-8.68 17-22 16.31-25.91 29.25-4 13.48 6.2 28.46 8.55 27.94 2.09-.45-2.8-13 3.89-25 4.39-7.82 8.14-5.52 18.1-15.86z" fill="#29235c"/><path d="M187.38 305.77c-2.17-1.36-4.11 1.08-9.95.69-2.6-.18-3.24-.73-4.17-.12-2.62 1.68-2.58 9.21 1.05 11.13a4.27 4.27 0 004.09 0c2.93-1.83 2.13-8 2.43-8s-.54 7.89 2 9c1.73.74 5-1.74 6.12-4.76 1.05-2.79.55-6.62-1.57-7.94zm41.29-81.38a2.22 2.22 0 00-1.63.44 2.35 2.35 0 00-.81 2.26 1.49 1.49 0 00.81 1.22 2.36 2.36 0 001.63.43 2.29 2.29 0 002-1.91 2.33 2.33 0 00-2-2.44zm-69.56 1.83a2.11 2.11 0 00-1.52-.71h-.74a2.07 2.07 0 00-1.52.71 2.66 2.66 0 00-.63 1.72 2.69 2.69 0 00.63 1.72 2.11 2.11 0 001.52.71h.74a2.07 2.07 0 001.52-.71 2.64 2.64 0 00.63-1.72 2.69 2.69 0 00-.63-1.72z" fill="#e0df7b"/><ellipse class="cls-1" cx="131.68" cy="75.05" rx="16.77" ry="69.48" transform="rotate(-11.62 131.723 75.065)"/><ellipse class="cls-1" cx="230.67" cy="68.14" rx="69.48" ry="16.77" transform="rotate(-78.5 230.382 68.22)"/></g></g></svg>