<svg xmlns="http://www.w3.org/2000/svg" viewBox="0 0 563.05 649.51"><defs><style>.cls-1{fill:#dbdb00}.cls-2{fill:#f752a0}.cls-4{fill:#470bdb}</style></defs><g id="Слой_2" data-name="Слой 2"><g id="Слой_4" data-name="Слой 4"><path class="cls-1" d="M281.53 649.51c-75.12 0-145.76-28.14-198.92-79.25S0 450.91 0 378.42A262.67 262.67 0 0148.67 226a279.17 279.17 0 01116.21-94.39c-.56-2.48-1.1-5-1.61-7.49-5.46-26.54-8.09-52.14-7.42-72.06.32-9.46 1.3-38.23 19.39-41.95a16.86 16.86 0 013.41-.35c11.37 0 21.45 10.45 31.72 32.88 8.18 17.87 15.59 41.84 20.87 67.5.1.48.19 1 .29 1.45a294.53 294.53 0 0150-4.28c6.7 0 13.49.24 20.27.7.47-2.55 1-5.11 1.5-7.66 5.28-25.65 12.69-49.62 20.87-67.49C334.43 10.45 344.52 0 355.89 0a16.94 16.94 0 013.41.35c18.08 3.72 19.06 32.49 19.38 41.95.68 19.92-1.95 45.52-7.41 72.05q-.69 3.32-1.42 6.61C423.2 138 471 170.71 505.33 214c37.76 47.57 57.72 104.44 57.72 164.47 0 72.49-29.34 140.62-82.61 191.84s-123.8 79.2-198.91 79.2z"/><path class="cls-1" d="M356.8 128.51c1.32-5.29 2.57-10.76 3.72-16.37 10.94-53.17 9.4-98.41-3.43-101S325 49.41 314 102.58c-1.2 5.86-2.25 11.63-3.16 17.25a282.86 282.86 0 00-88.09 4.63c-.69-4-1.46-8-2.3-12.09-10.94-53.18-30.21-94.14-43-91.5S163.08 68.76 174 121.93q1.73 8.32 3.69 16.23C79.81 177.3 11 270.13 11 378.42c0 143.66 121.1 260.12 270.53 260.12s270.55-116.46 270.55-260.12c0-118.54-82.48-218.56-195.28-249.91z"/></g><g id="Слой_2-2" data-name="Слой 2"><ellipse class="cls-2" cx="283.87" cy="380.36" rx="270.56" ry="260.12"/><ellipse cx="277.68" cy="353.62" rx="230.37" ry="221.48" fill="#0fa5f7"/><path class="cls-2" d="M379.91 245.37c-49.91-76.14-100.33 6.33-142.55 41.12-20.85 14.39-48.61 26.57-64 47.72-6.35-3.94-6.14 4.88-5.47 9.09-3.22 6.17-8 18.2 1.59 20.61 2.63 39.52 20.42 75.4 45.49 105.47 12 31.24 27 40.29 36.72 43.33 46.2 14.38 121.31-60.51 140.52-140.57 13.49-56.3-3.15-104.88-12.3-126.77z"/><path class="cls-4" d="M354.83 336.63c1.48-7.27-9.48-20-22.41-20.78-12.18-.74-21.93 9.38-23.08 14.49a5 5 0 007.31 5.61c3.16-1.52 6-3.65 9.24-4.87 0 .35-.06.85-.06 1.45a13 13 0 00.94 5.09 8.92 8.92 0 003.41 4.32 8.55 8.55 0 009.82-1.14 9.19 9.19 0 002.69-7.6 17.12 17.12 0 003.26 5.42c1.43 1.6 3 3.37 4.76 3.18 2.14-.22 3.73-3.22 4.12-5.17zm2.63-34.5c-11.2-10.39-35.28-24.09-46.23-5.58-1.82 3.08 1.69 5.82 4.54 4.54 12.87-5.81 22.72 2.79 32.31 10.42 6.52 5.18 15.78-3.44 9.38-9.38zm-99.18 37.59c-7.71-24.41-41.41-27.12-50.94-2.64-1.41 3.63 4.3 5.82 6.19 2.6a19.8 19.8 0 0111.29-9.07 8.76 8.76 0 00-.39 1c-1 3-.93 8.4 3 11.33 3.4 2.54 8.49 2.37 11 0 1.7-1.6 2.36-4.37 2.78-6.15a17.65 17.65 0 00.45-2.82 18.42 18.42 0 015.5 8.85c2.08 7.09 13.36 4 11.12-3.1zm49.3 85.46c-10.35 6.11-19.2 9.49-32.71 13.86-6.59 2.13-16.72 3.12-31.47-3.06-2.54-.62-5.65-1-7 .59-2.64 3.12 2.85 12.43 7.37 17.77 1.61 1.9 17.48 20.08 37.51 15.46 9.9-2.28 15.39-9 22.39-17 6-6.83 10.52-14.61 10.3-23.93a4.3 4.3 0 00-6.39-3.69z"/><path class="cls-1" d="M467 348c10.8 8.12 22.84 11.09 29.59 6.47 9.51-6.51 5.88-26.32-.5-38.29-8.57-16.07-21.82-18-38.68-29-29.13-19-21.2-34.17-68.41-90.42-13-15.47-24.25-25.69-40.07-35.29-13.37-8.12-29.1-12.48-44.76-10.13-12 1.81-25.68 8.73-30.42 20.51a149.13 149.13 0 00-32.13-9.85c-5.72-1-22.62-3.63-38.62 0-36.65 8.38-62 49.05-71.9 76.1-4.53 12.4-6.53 22-15.57 36.18-7.11 11.21-16.53 19.5-26.81 27.72-16.27 13-29.79 32.71-20.2 54.17 5.72 12.78 19.71 20.4 33.2 19.27a139.49 139.49 0 00-14.23 20.88c-5.1 9.24-11 23.85-4.58 31.48 6.76 8 23.43 3.42 24.72 3.05a47.43 47.43 0 00-5.08 11.68c-.83 3-7.72 28.91 8.3 42 7 5.7 20.1 10.46 31.59 3.77 9.23-5.36 14.38-16.33 12.92-27.77a61.91 61.91 0 002.7 8.51c1.7 4.23 11.11 27.67 29.94 30.44 2 .29 9.36 1.23 15.76-3 7.43-4.87 10.9-14.59 9.26-25.16-1.7-10.9-5.81-21.45-8.45-32.15C201.46 426.6 199 413.85 197 401c-1.93-12.29-3.67-24.71-4.58-37.12-.88-12-.45-24.85 5.91-35.48 8.21-13.69 24.56-15.75 37.47-23-.29 2.49-.42 5-.46 7.3-.14 7.24-.65 15.88 7.94 17.34 7 1.19 13.63-3.31 18-8.32a39.77 39.77 0 004.26-6.4 240.07 240.07 0 00-5.37 25.39c-.53 3.46 2.63 6.4 6 4.61 18-9.61 31.48-57.37 31.48-57.37 10.33-37.07 12.8-55.16 17.71-55.18 4.46 0 4.37 14.79 16.62 31.78 9.17 12.72 15.46 13.08 25.8 23.12 19.27 18.7 29.06 47.65 27.22 71.24-1.23 15.7-7.22 30.49-12.39 45.2-4.9 14-9 28.26-10.71 43-2.52 21.16-.86 59.64 24.1 68 12.39 4.17 25-3.19 30.83-14.14 5.14-9.59 6.19-21.06 5.25-32.15 12.54 10.66 30.49 14.54 41.37-1.91 9.48-14.33 8.28-33.55 2-49.9 2.2 1.21 11 5.75 18 2.1 9.18-4.77 8.47-20 8.18-26-1.16-22.74-17.44-38.81-24.63-45.11z"/><path class="cls-4" d="M420 452.39c18.73-19.49 22.81-39.32 22.62-49.36a24.8 24.8 0 00-.63-5.36c-1-4.34-3.83-10.4-17.46-20.72-11.3-8.56-15.12-8.74-18.4-14.76a25.28 25.28 0 01-2.77-13.49c1.73-3.6 4.3-9 7.31-15.71 2.3-5.09 5.93-13.3 7.16-16.41 4.4-11.13 8.16-33.36-2.83-53.72-7.1-13.15-17.49-20-23.11-23.63-28.39-18.14-70.14-19.81-76.64-6.44-4.1 8.44 5.34 24 16.62 31.78 17.62 12.2 33.93 1.53 47 14.45 9.24 9.17 9.66 23.12 9.77 26.84.41 13.46-4.9 16.89-8.55 35.27-1.81 9.13-3 19.14.73 28 7.43 17.83 31.38 12.69 38.36 28.45 4.91 11.11-1.77 24.17-5.63 31.71-12.29 24-31.18 23.07-36.66 41.37-5.71 19.08 8.77 40.26 12.1 39.54 2.95-.64-4-18.35 5.5-35.33 6.15-11.11 11.45-7.82 25.51-22.48z"/><path d="M278.39 445.46c-3.07-1.91-5.82 1.53-14.08 1-3.67-.25-4.58-1-5.9-.17-3.7 2.38-3.64 13 1.49 15.75a6 6 0 005.78 0c4.14-2.6 3-11.25 3.44-11.25s-.77 11.17 2.82 12.7c2.46 1 7-2.47 8.67-6.75 1.51-3.99.77-9.4-2.22-11.28zm58.41-115.11a3.17 3.17 0 00-2.31.61 3.32 3.32 0 00-1.14 3.2 2.08 2.08 0 001.14 1.72 3.39 3.39 0 002.31.62 3.24 3.24 0 002.8-2.7 3.29 3.29 0 00-2.8-3.45zm-98.41 2.58a3 3 0 00-2.15-1h-1a2.93 2.93 0 00-2.15 1 3.74 3.74 0 000 4.87 3 3 0 002.15 1h1a2.93 2.93 0 002.15-1 3.74 3.74 0 000-4.87z" fill="#e0df7b"/><ellipse class="cls-2" cx="199.59" cy="119.09" rx="23.73" ry="98.29" transform="rotate(-11.62 199.676 119.116)"/><ellipse class="cls-2" cx="339.62" cy="109.31" rx="98.29" ry="23.73" transform="rotate(-78.38 339.605 109.313)"/></g></g></svg>