<svg xmlns="http://www.w3.org/2000/svg" viewBox="0 0 267.82 176.3"><defs><style>.cls-2{fill:#0697e7}</style></defs><g id="Слой_2" data-name="Слой 2"><g id="Слой_3" data-name="Слой 3"><path d="M154.05 52.62c-9 32.27-25.15 36.29-56 84.58-18.31 28.71-19.52 38.14-28.63 39-15.84 1.58-29.64-26.28-57.26-82C4.57 78.84-1.88 64.22.5 46.11c.59-4.42 3.5-26.45 17.61-31.46 11.07-3.92 23.37 4.63 29.46 8.86 19 13.23 19.19 28.7 28.41 29.11 10.39.47 12.36-19.1 33.83-36.43 10.13-8.18 31-21 41.64-14.32 13.96 8.78 3.68 46.87 2.6 50.75z" fill="#dbdb00"/><path class="cls-2" d="M195.54 110.37c-3.27 23.67-.47 33-9.45 45.06-2.06 2.76-9.48 12.74-15.5 11.14-10.92-2.89-9.51-41.77-6.79-63.34 1.12-8.86 7-55.63 22.13-57.12 7.82-.76 14.53 10.92 15 11.72 7.07 12.7-1.12 21.68-5.39 52.54z"/><path class="cls-2" d="M189.19 112.48c4.26 5.83 30.77-5.36 48.79-18.22 15.65-11.17 33.19-29.52 29.28-36.43-2.35-4.16-11.81-3-15.61-2.61-12.24 1.44-20.69 8.33-25.38 12.37-3.33 2.87-42.89 36.94-37.08 44.89z"/><path d="M246.44 167.13c-7.48 6-30.63-7.23-42.94-24.72-9.09-12.92-15.9-33.34-9.11-39s26.33 4.53 37.74 16.92c14.39 15.58 21.74 40.89 14.31 46.8zM125.72 66c-5.58 20.12-15.61 22.62-34.72 52.76-11.37 17.92-12.12 23.8-17.77 24.37-9.83 1-18.4-16.4-35.54-51.16-4.75-9.63-8.75-18.75-7.27-30 .36-2.76 2.16-16.51 10.93-19.64 6.87-2.45 14.51 2.89 18.29 5.53 11.8 8.21 11.9 17.86 17.62 18.14 6.45.29 7.67-11.92 21-22.74 6.28-5.1 19.23-13.12 25.84-8.93 8.67 5.46 2.29 29.23 1.62 31.67z" fill="#29235c"/></g></g></svg>